<svg version="1.1" id="Layer_1" xmlns="http://www.w3.org/2000/svg" xmlns:xlink="http://www.w3.org/1999/xlink" x="0px" y="0px"
	 width="100%" viewBox="0 0 91 150" enable-background="new 0 0 91 150" xml:space="preserve">
<path fill="#FFFFFF" opacity="1.000000" stroke="none" 
	d="
M91.774124,4.780782 
	C92.000000,12.020947 92.000000,19.041895 92.000000,26.531422 
	C81.502571,38.834316 69.785355,49.471008 58.731403,60.759514 
	C54.658623,64.918716 50.787090,69.284546 46.514809,73.245735 
	C44.995079,74.654800 45.319351,75.652054 46.719112,76.902855 
	C57.000515,86.090126 66.146027,96.430931 76.111366,105.953880 
	C81.365913,110.975143 86.388054,116.307137 91.749725,121.757050 
	C92.000000,129.354248 92.000000,136.708496 92.000000,144.531372 
	C90.249191,146.941116 88.603958,148.988037 86.228195,150.765762 
	C78.645752,151.000000 71.291496,151.000000 63.468620,151.000000 
	C55.908733,143.803268 48.794914,136.599945 41.572121,129.569946 
	C35.528637,123.687775 29.643562,117.596863 23.599756,111.711411 
	C16.128607,104.436020 8.475680,97.287025 1.260247,89.238419 
	C1.000000,79.645767 1.000000,70.291542 1.000000,60.468658 
	C13.058573,49.037010 24.247217,37.190834 35.775066,25.690203 
	C43.771122,17.713026 52.052635,10.012621 59.762863,1.260215 
	C69.354225,1.000000 78.708458,1.000000 88.531342,1.000000 
	C90.173088,1.955603 90.403404,3.585752 91.774124,4.780782 
z"/>
<path fill="#000000" opacity="1.000000" stroke="none" 
	d="
M92.000000,121.531342 
	C89.512108,122.752541 89.534454,119.913155 88.482101,119.422157 
	C81.593437,116.208069 78.905342,108.719307 72.939491,104.723938 
	C66.764320,100.588394 63.733780,93.292358 56.823120,89.587112 
	C54.457527,88.318748 52.580097,84.333763 50.094788,81.838493 
	C48.344589,80.081284 46.810936,78.008774 44.529400,77.077583 
	C41.804237,75.965355 42.652103,73.779030 43.842876,73.180679 
	C49.283291,70.446922 51.414413,64.447830 56.088867,61.209343 
	C60.602688,58.082150 63.487770,53.521870 67.456337,49.948418 
	C71.497467,46.309620 75.113121,42.202908 79.021538,38.410809 
	C83.013206,34.537933 87.134254,30.798405 91.599335,27.000248 
	C92.000000,58.354229 92.000000,89.708458 92.000000,121.531342 
z"/>
<path fill="#000000" opacity="1.000000" stroke="none" 
	d="
M1.000000,89.468658 
	C2.942993,88.872383 4.207753,88.565178 5.296584,91.406265 
	C6.437965,94.384476 9.502752,97.069519 12.377129,98.807022 
	C14.934636,100.352982 16.500446,102.190353 18.135122,104.545547 
	C20.082298,107.350975 22.668127,109.900803 25.463446,111.871887 
	C27.796217,113.516815 29.876490,114.858452 31.153805,117.679489 
	C32.383190,120.394669 35.683666,123.642731 37.275291,124.035339 
	C42.314472,125.278358 43.680038,129.851913 46.342022,132.684204 
	C49.207569,135.733078 53.322239,137.457047 55.359673,141.143982 
	C57.325863,144.701996 61.335926,146.426788 62.999847,150.585403 
	C43.402973,151.000000 23.805319,150.923981 4.209610,151.084686 
	C1.379667,151.107880 0.903848,150.435532 0.923886,147.731369 
	C1.066627,128.467545 1.000000,109.202187 1.000000,89.468658 
z"/>
<path fill="#000000" opacity="1.000000" stroke="none" 
	d="
M59.531342,1.000000 
	C61.636395,4.949888 57.454948,6.245012 55.898762,7.722049 
	C51.753849,11.656136 47.919552,15.854007 43.929924,19.923893 
	C40.119839,23.810625 35.482304,26.962603 32.068871,31.140503 
	C28.590288,35.398148 24.207851,38.690056 20.674452,42.921185 
	C18.464239,45.567833 15.564036,48.334450 12.454576,50.605854 
	C9.804345,52.541805 6.987463,55.378746 5.316565,58.253075 
	C4.182453,60.204006 2.490990,59.394993 1.335737,60.318665 
	C1.000000,41.402809 1.079736,22.804909 0.915098,4.209174 
	C0.890046,1.379552 1.563818,0.902006 4.267997,0.923671 
	C22.531923,1.070001 40.797585,1.000000 59.531342,1.000000 
z"/>
<path fill="#000000" opacity="1.000000" stroke="none" 
	d="
M86.499062,151.000000 
	C85.849236,147.381241 88.915672,146.537720 91.588226,144.999603 
	C92.250610,148.598846 92.882332,152.515411 86.499062,151.000000 
z"/>
<path fill="#000000" opacity="1.000000" stroke="none" 
	d="
M92.000000,4.500000 
	C88.942635,5.885846 89.194969,3.185292 88.685501,1.325503 
	C91.558823,0.441177 92.558823,1.441177 92.000000,4.500000 
z"/>
</svg>