<svg version="1.1" id="Layer_1" xmlns="http://www.w3.org/2000/svg" xmlns:xlink="http://www.w3.org/1999/xlink" x="0px" y="0px"
	 width="100%" viewBox="0 0 204 204" enable-background="new 0 0 204 204" xml:space="preserve">
<path fill="#000000" opacity="1.000000" stroke="none" 
	d="
M122.000000,1.000002 
	C149.593109,1.000000 177.186234,1.000000 205.000000,1.000000 
	C205.000000,28.020494 205.000000,55.041588 204.612442,82.660332 
	C203.509216,81.501045 202.597015,79.796455 202.112671,77.977898 
	C200.229187,70.906143 196.097061,68.628723 188.589096,70.932220 
	C182.665558,73.050606 179.813583,79.006157 181.202911,85.422592 
	C181.891907,88.604614 182.703171,91.801811 182.949631,95.031029 
	C184.241547,111.958260 181.023438,127.981285 172.600388,143.127289 
	C167.170074,149.851593 162.032486,156.400772 156.587036,163.093399 
	C151.151184,166.807892 146.023224,170.378937 140.573029,174.105270 
	C135.821823,176.126144 131.392853,177.991730 126.568054,179.917542 
	C117.114502,181.040390 108.056778,182.102997 98.551750,183.100983 
	C95.180923,182.735367 92.182320,182.748123 89.349060,182.070007 
	C82.868080,180.518845 76.467918,178.629974 69.854111,176.584076 
	C55.867474,169.904739 44.916237,160.139603 35.906246,147.584290 
	C33.128819,142.026535 30.144842,136.927704 27.944292,131.510651 
	C22.560717,118.258018 21.975647,104.469322 23.764143,90.383598 
	C25.067188,80.121170 29.094725,70.962944 34.003662,61.685543 
	C40.689613,51.863243 47.656563,42.689568 57.836010,36.792511 
	C64.700058,32.816101 71.925308,29.463194 79.385544,25.880711 
	C82.770561,25.283470 85.739471,24.519468 88.752075,24.018078 
	C93.167244,23.283260 97.613701,22.736452 102.463501,22.091963 
	C109.910271,23.092571 116.940369,24.110743 124.184891,25.436167 
	C125.962837,26.144947 127.610847,26.350861 129.074753,26.983067 
	C134.404327,29.284718 139.672333,31.728891 145.113770,34.425529 
	C148.344879,36.829182 151.467606,38.868446 154.492767,41.043446 
	C156.712418,42.639309 158.804138,44.413147 161.126862,46.437134 
	C163.081818,47.453892 165.067047,49.011997 166.602295,48.651855 
	C170.074066,47.837444 174.055878,46.833729 176.470322,44.500034 
	C179.218231,41.844044 180.882889,37.114662 177.724670,33.768440 
	C172.951508,28.711119 167.312286,24.471188 161.890701,19.577663 
	C156.492966,16.236212 151.245621,13.200997 145.668610,9.990196 
	C138.558853,7.598449 131.778778,5.382289 124.618507,3.099333 
	C123.492203,2.355026 122.746101,1.677515 122.000000,1.000002 
M124.999603,100.265808 
	C125.066978,99.953514 125.055130,99.592079 125.213737,99.336372 
	C127.272392,96.017456 125.457809,93.044449 123.009674,91.899673 
	C120.730667,90.833961 117.003067,90.927818 114.867432,92.162209 
	C113.396973,93.012131 113.078453,96.681808 113.093300,99.085999 
	C113.117119,102.942146 116.145058,103.141479 119.137604,103.012459 
	C120.797699,102.940895 122.463242,102.995872 123.876419,103.651512 
	C120.900864,107.604103 117.925308,111.556694 114.973213,115.478119 
	C122.651230,118.510086 123.681976,110.903610 127.763420,108.067039 
	C128.581772,114.168983 131.900818,117.680336 135.876022,116.984131 
	C139.266434,116.390335 142.946030,112.079659 141.832336,109.229706 
	C141.051254,107.230896 139.131500,105.056114 137.197205,104.302559 
	C135.241241,103.540581 132.641098,104.432129 129.982727,104.623894 
	C133.156418,100.181175 136.209641,95.907082 139.383789,91.463722 
	C134.776199,90.227539 131.947128,91.396225 129.885712,95.221565 
	C128.701370,97.419350 126.613342,99.130127 124.999603,100.265808 
M110.999916,105.243439 
	C110.999214,97.957909 108.190804,92.285843 103.768837,91.033386 
	C96.471306,88.966461 90.732430,92.896645 89.159470,97.654694 
	C86.092796,106.931084 90.882339,114.529083 95.895294,116.091606 
	C103.743515,118.537857 107.908386,115.959282 110.999916,105.243439 
M72.906342,115.998970 
	C75.343323,115.423920 78.865036,115.653122 80.004601,114.116135 
	C82.895691,110.216774 84.988403,105.634079 86.816216,101.089874 
	C87.414452,99.602570 86.688911,97.095345 85.740410,95.569458 
	C83.381020,91.773827 79.728096,89.517166 75.167641,90.460983 
	C69.186592,91.698822 67.068138,94.389999 67.000000,99.576851 
	C66.923134,105.428703 68.514626,107.474480 73.968819,109.236710 
	C73.339874,111.480598 72.708633,113.732666 72.906342,115.998970 
z"/>
<path fill="#000000" opacity="1.000000" stroke="none" 
	d="
M205.000000,123.000000 
	C205.000000,150.259781 205.000000,177.519547 205.000000,205.000000 
	C178.312851,205.000000 151.625076,205.000000 124.318115,204.640640 
	C125.166161,203.539398 126.633400,202.797516 128.495117,202.031189 
	C133.260040,200.616043 137.630463,199.225357 142.346603,197.780304 
	C148.160889,194.503036 153.629456,191.280136 159.449188,188.020721 
	C164.879303,183.695938 169.958252,179.407654 175.340103,174.970184 
	C180.461823,168.565704 185.280640,162.310379 190.394974,155.876801 
	C196.684921,146.368408 200.405731,136.121017 203.043549,125.414238 
	C203.267792,124.504074 204.328094,123.799881 205.000000,123.000000 
z"/>
<path fill="#000000" opacity="1.000000" stroke="none" 
	d="
M83.000000,205.000000 
	C55.739769,205.000000 28.479540,205.000000 1.000000,205.000000 
	C1.000000,177.979507 1.000000,150.958405 1.395290,123.336197 
	C2.169393,123.228470 2.792576,123.677605 2.891131,124.221756 
	C5.122213,136.540268 9.837845,147.817413 16.981796,158.455704 
	C22.661272,165.241058 28.308186,171.676559 34.095818,178.412750 
	C44.330765,188.845612 56.613571,195.272186 70.343430,200.017670 
	C74.189400,201.137665 77.714050,201.995514 81.169731,203.074280 
	C81.908234,203.304840 82.396469,204.337082 83.000000,205.000000 
z"/>
<path fill="#000000" opacity="1.000000" stroke="none" 
	d="
M1.000000,83.000000 
	C1.000000,55.739769 1.000000,28.479540 1.000000,1.000000 
	C28.020498,1.000000 55.041592,1.000000 82.687271,1.354072 
	C81.859932,2.436142 80.407997,3.164140 78.552429,3.937446 
	C72.315094,5.900710 66.356430,7.509123 60.674477,9.802974 
	C49.835728,14.178671 40.609818,21.125479 31.657036,29.031038 
	C26.887129,34.748463 22.425177,40.313725 17.661148,46.058086 
	C10.606904,57.237988 4.881626,68.651947 2.871239,81.608093 
	C2.786273,82.155663 1.647727,82.539749 1.000000,83.000000 
z"/>
<path fill="#A13582" opacity="1.000000" stroke="none" 
	d="
M1.000000,83.468658 
	C1.647727,82.539749 2.786273,82.155663 2.871239,81.608093 
	C4.881626,68.651947 10.606904,57.237988 17.719408,46.482178 
	C18.386486,48.842014 18.942335,50.954960 18.958477,53.072018 
	C19.045931,64.543037 19.086994,76.015930 18.974581,87.486511 
	C18.869560,98.202461 18.447092,108.915535 18.367655,119.631386 
	C18.317406,126.409920 18.932611,133.200928 18.707964,139.968353 
	C18.506847,146.026962 17.564526,152.060974 16.949230,158.105835 
	C9.837845,147.817413 5.122213,136.540268 2.891131,124.221756 
	C2.792576,123.677605 2.169393,123.228470 1.395290,122.867538 
	C1.000000,109.979103 1.000000,96.958214 1.000000,83.468658 
z"/>
<path fill="#5730B4" opacity="1.000000" stroke="none" 
	d="
M205.000000,122.531342 
	C204.328094,123.799881 203.267792,124.504074 203.043549,125.414238 
	C200.405731,136.121017 196.684921,146.368408 190.081177,155.590057 
	C189.314560,153.513077 189.023544,151.544800 189.020218,149.576050 
	C188.976105,123.346039 188.972260,97.115959 188.958374,70.885902 
	C196.097061,68.628723 200.229187,70.906143 202.112671,77.977898 
	C202.597015,79.796455 203.509216,81.501045 204.612442,83.128990 
	C205.000000,96.020897 205.000000,109.041786 205.000000,122.531342 
z"/>
<path fill="#823397" opacity="1.000000" stroke="none" 
	d="
M83.466858,205.000000 
	C82.396469,204.337082 81.908234,203.304840 81.169731,203.074280 
	C77.714050,201.995514 74.189400,201.137665 70.344223,199.560959 
	C70.011017,191.573456 70.022972,184.225845 70.034935,176.878250 
	C76.467918,178.629974 82.868080,180.518845 89.349060,182.070007 
	C92.182320,182.748123 95.180923,182.735367 98.552185,183.557770 
	C98.999947,191.052780 98.999977,198.026398 99.000000,205.000000 
	C93.977905,205.000000 88.955818,205.000000 83.466858,205.000000 
z"/>
<path fill="#78329E" opacity="1.000000" stroke="none" 
	d="
M99.468651,205.000000 
	C98.999977,198.026398 98.999947,191.052780 98.999489,183.622391 
	C108.056778,182.102997 117.114502,181.040390 126.578735,180.396927 
	C126.989853,183.925507 126.857330,187.042725 127.033417,190.142410 
	C127.259415,194.120865 127.733452,198.085205 128.100632,202.055634 
	C126.633400,202.797516 125.166161,203.539398 123.849457,204.640640 
	C115.979103,205.000000 107.958199,205.000000 99.468651,205.000000 
z"/>
<path fill="#78329E" opacity="1.000000" stroke="none" 
	d="
M121.531464,1.000002 
	C122.746101,1.677515 123.492203,2.355026 124.618919,3.546767 
	C124.656509,11.083635 124.313492,18.106276 123.970467,25.128914 
	C116.940369,24.110743 109.910271,23.092571 102.295059,21.699858 
	C101.473305,14.550210 101.236656,7.775105 101.000000,1.000000 
	C107.687645,1.000000 114.375290,1.000000 121.531464,1.000002 
z"/>
<path fill="#823397" opacity="1.000000" stroke="none" 
	d="
M100.532059,1.000000 
	C101.236656,7.775105 101.473305,14.550210 101.878387,21.717421 
	C97.613701,22.736452 93.167244,23.283260 88.752075,24.018078 
	C85.739471,24.519468 82.770561,25.283470 79.388062,25.423967 
	C78.981354,17.909302 78.968704,10.900720 78.956062,3.892138 
	C80.407997,3.164140 81.859932,2.436142 83.155930,1.354072 
	C88.688042,1.000000 94.376083,1.000000 100.532059,1.000000 
z"/>
<path fill="#9B3586" opacity="1.000000" stroke="none" 
	d="
M16.981794,158.455704 
	C17.564526,152.060974 18.506847,146.026962 18.707964,139.968353 
	C18.932611,133.200928 18.317406,126.409920 18.367655,119.631386 
	C18.447092,108.915535 18.869560,98.202461 18.974581,87.486511 
	C19.086994,76.015930 19.045931,64.543037 18.958477,53.072018 
	C18.942335,50.954960 18.386486,48.842014 18.021484,46.303078 
	C22.425177,40.313725 26.887129,34.748463 31.668722,29.508444 
	C31.992960,39.071743 31.916037,48.311295 32.084518,57.546364 
	C32.111759,59.039413 33.229809,60.512562 33.843636,61.994911 
	C29.094725,70.962944 25.067188,80.121170 23.764143,90.383598 
	C21.975647,104.469322 22.560717,118.258018 27.944292,131.510651 
	C30.144842,136.927704 33.128819,142.026535 35.734695,147.974640 
	C35.475639,154.091751 35.297768,159.507812 34.982277,164.915863 
	C34.725372,169.319565 34.303703,173.713684 33.955101,178.112045 
	C28.308186,171.676559 22.661272,165.241058 16.981794,158.455704 
z"/>
<path fill="#91348D" opacity="1.000000" stroke="none" 
	d="
M34.003662,61.685543 
	C33.229809,60.512562 32.111759,59.039413 32.084518,57.546364 
	C31.916037,48.311295 31.992960,39.071743 31.976677,29.356277 
	C40.609818,21.125479 49.835728,14.178671 60.674477,9.802974 
	C66.356430,7.509123 72.315094,5.900710 78.552429,3.937445 
	C78.968704,10.900720 78.981354,17.909302 78.991486,25.374626 
	C71.925308,29.463194 64.700058,32.816101 57.836010,36.792511 
	C47.656563,42.689568 40.689613,51.863243 34.003662,61.685543 
z"/>
<path fill="#91348D" opacity="1.000000" stroke="none" 
	d="
M34.095814,178.412750 
	C34.303703,173.713684 34.725372,169.319565 34.982277,164.915863 
	C35.297768,159.507812 35.475639,154.091751 35.884552,148.288818 
	C44.916237,160.139603 55.867474,169.904739 69.854111,176.584076 
	C70.022972,184.225845 70.011017,191.573456 69.998260,199.377747 
	C56.613571,195.272186 44.330765,188.845612 34.095814,178.412750 
z"/>
<path fill="#5C30B0" opacity="1.000000" stroke="none" 
	d="
M188.589111,70.932220 
	C188.972260,97.115959 188.976105,123.346039 189.020218,149.576050 
	C189.023544,151.544800 189.314560,153.513077 189.785645,155.768311 
	C185.280640,162.310379 180.461823,168.565704 175.281647,174.546204 
	C174.711456,168.038300 174.621475,161.798141 174.252426,155.574554 
	C174.002213,151.355057 173.360016,147.158798 172.893112,142.952148 
	C181.023438,127.981285 184.241547,111.958260 182.949631,95.031029 
	C182.703171,91.801811 181.891907,88.604614 181.202911,85.422592 
	C179.813583,79.006157 182.665558,73.050606 188.589111,70.932220 
z"/>
<path fill="#6331AC" opacity="1.000000" stroke="none" 
	d="
M172.600388,143.127289 
	C173.360016,147.158798 174.002213,151.355057 174.252426,155.574554 
	C174.621475,161.798141 174.711456,168.038300 174.978729,174.695374 
	C169.958252,179.407654 164.879303,183.695938 159.135818,187.733246 
	C158.314194,182.347305 158.252640,177.206924 157.963989,172.079361 
	C157.792099,169.025833 157.263260,165.992416 156.894897,162.949951 
	C162.032486,156.400772 167.170074,149.851593 172.600388,143.127289 
z"/>
<path fill="#6F32A4" opacity="1.000000" stroke="none" 
	d="
M124.184891,25.436167 
	C124.313492,18.106276 124.656509,11.083635 124.999115,3.613562 
	C131.778778,5.382289 138.558853,7.598449 145.669022,10.443174 
	C145.653931,18.754272 145.308746,26.436806 144.963562,34.119339 
	C139.672333,31.728891 134.404327,29.284718 129.074753,26.983067 
	C127.610847,26.350861 125.962837,26.144947 124.184891,25.436167 
z"/>
<path fill="#6931A8" opacity="1.000000" stroke="none" 
	d="
M145.113770,34.425529 
	C145.308746,26.436806 145.653931,18.754272 145.998688,10.618761 
	C151.245621,13.200997 156.492966,16.236212 161.877686,20.054642 
	C162.009827,23.667162 162.113159,26.501726 161.976425,29.324663 
	C161.705292,34.922390 161.301712,40.513699 160.952866,46.107666 
	C158.804138,44.413147 156.712418,42.639309 154.492767,41.043446 
	C151.467606,38.868446 148.344879,36.829182 145.113770,34.425529 
z"/>
<path fill="#6931A8" opacity="1.000000" stroke="none" 
	d="
M156.587036,163.093399 
	C157.263260,165.992416 157.792099,169.025833 157.963989,172.079361 
	C158.252640,177.206924 158.314194,182.347305 158.784668,187.769760 
	C153.629456,191.280136 148.160889,194.503036 142.346344,197.323456 
	C142.000244,192.783142 142.142227,188.638931 141.956635,184.509460 
	C141.798035,180.980850 141.263504,177.469162 140.895264,173.949982 
	C146.023224,170.378937 151.151184,166.807892 156.587036,163.093399 
z"/>
<path fill="#FFFFFF" opacity="1.000000" stroke="none" 
	d="
M110.999313,105.679207 
	C107.908386,115.959282 103.743515,118.537857 95.895294,116.091606 
	C90.882339,114.529083 86.092796,106.931084 89.159470,97.654694 
	C90.732430,92.896645 96.471306,88.966461 103.768837,91.033386 
	C108.190804,92.285843 110.999214,97.957909 110.999313,105.679207 
M100.283279,109.964516 
	C105.186424,105.318077 104.781029,99.988426 99.321320,97.317917 
	C94.464897,101.928406 94.526169,106.462631 100.283279,109.964516 
z"/>
<path fill="#6F32A4" opacity="1.000000" stroke="none" 
	d="
M140.573029,174.105270 
	C141.263504,177.469162 141.798035,180.980850 141.956635,184.509460 
	C142.142227,188.638931 142.000244,192.783142 142.000641,197.377808 
	C137.630463,199.225357 133.260040,200.616043 128.495117,202.031189 
	C127.733452,198.085205 127.259415,194.120865 127.033417,190.142410 
	C126.857330,187.042725 126.989853,183.925507 126.974556,180.336685 
	C131.392853,177.991730 135.821823,176.126144 140.573029,174.105270 
z"/>
<path fill="#6331AC" opacity="1.000000" stroke="none" 
	d="
M161.126862,46.437134 
	C161.301712,40.513699 161.705292,34.922390 161.976425,29.324663 
	C162.113159,26.501726 162.009827,23.667162 162.028076,20.360878 
	C167.312286,24.471188 172.951508,28.711119 177.724670,33.768440 
	C180.882889,37.114662 179.218231,41.844044 176.470322,44.500034 
	C174.055878,46.833729 170.074066,47.837444 166.602295,48.651855 
	C165.067047,49.011997 163.081818,47.453892 161.126862,46.437134 
z"/>
<path fill="#FFFFFF" opacity="1.000000" stroke="none" 
	d="
M72.491867,115.991852 
	C72.708633,113.732666 73.339874,111.480598 73.968819,109.236710 
	C68.514626,107.474480 66.923134,105.428703 67.000000,99.576851 
	C67.068138,94.389999 69.186592,91.698822 75.167641,90.460983 
	C79.728096,89.517166 83.381020,91.773827 85.740410,95.569458 
	C86.688911,97.095345 87.414452,99.602570 86.816216,101.089874 
	C84.988403,105.634079 82.895691,110.216774 80.004601,114.116135 
	C78.865036,115.653122 75.343323,115.423920 72.491867,115.991852 
M77.330811,102.963303 
	C78.587418,102.257133 79.844017,101.550957 81.100616,100.844780 
	C80.767563,100.031181 80.434509,99.217583 80.101456,98.403984 
	C78.276123,98.227554 76.450790,98.051125 74.625458,97.874695 
	C75.274216,99.568497 75.922974,101.262299 77.330811,102.963303 
z"/>
<path fill="#FFFFFF" opacity="1.000000" stroke="none" 
	d="
M124.932121,101.060143 
	C126.613342,99.130127 128.701370,97.419350 129.885712,95.221565 
	C131.947128,91.396225 134.776199,90.227539 139.383789,91.463722 
	C136.209641,95.907082 133.156418,100.181175 129.982727,104.623894 
	C132.641098,104.432129 135.241241,103.540581 137.197205,104.302559 
	C139.131500,105.056114 141.051254,107.230896 141.832336,109.229706 
	C142.946030,112.079659 139.266434,116.390335 135.876022,116.984131 
	C131.900818,117.680336 128.581772,114.168983 127.763420,108.067039 
	C123.681976,110.903610 122.651230,118.510086 114.973213,115.478119 
	C117.925308,111.556694 120.900864,107.604103 123.958084,103.336731 
	C124.039757,103.021942 123.978485,103.089264 124.304474,102.983513 
	C124.776360,102.223289 124.922256,101.568817 125.034958,100.951546 
	C125.001747,100.988739 124.932121,101.060143 124.932121,101.060143 
z"/>
<path fill="#FFFFFF" opacity="1.000000" stroke="none" 
	d="
M124.083038,103.007874 
	C122.463242,102.995872 120.797699,102.940895 119.137604,103.012459 
	C116.145058,103.141479 113.117119,102.942146 113.093300,99.085999 
	C113.078453,96.681808 113.396973,93.012131 114.867432,92.162209 
	C117.003067,90.927818 120.730667,90.833961 123.009674,91.899673 
	C125.457809,93.044449 127.272392,96.017456 125.213737,99.336372 
	C125.055130,99.592079 125.066978,99.953514 124.965866,100.662979 
	C124.932121,101.060143 125.001747,100.988739 124.651764,101.079681 
	C124.194023,101.810165 124.086250,102.449715 123.978485,103.089264 
	C123.978485,103.089264 124.039757,103.021942 124.083038,103.007874 
z"/>
<path fill="#000000" opacity="1.000000" stroke="none" 
	d="
M99.887634,109.955933 
	C94.526169,106.462631 94.464897,101.928406 99.321320,97.317917 
	C104.781029,99.988426 105.186424,105.318077 99.887634,109.955933 
z"/>
<path fill="#000000" opacity="1.000000" stroke="none" 
	d="
M76.951279,102.959702 
	C75.922974,101.262299 75.274216,99.568497 74.625458,97.874695 
	C76.450790,98.051125 78.276123,98.227554 80.101456,98.403984 
	C80.434509,99.217583 80.767563,100.031181 81.100616,100.844780 
	C79.844017,101.550957 78.587418,102.257133 76.951279,102.959702 
z"/>
<path fill="#000000" opacity="1.000000" stroke="none" 
	d="
M124.304474,102.983513 
	C124.086250,102.449715 124.194023,101.810165 124.684975,101.042480 
	C124.922256,101.568817 124.776360,102.223289 124.304474,102.983513 
z"/>
</svg>