<svg version="1.1" id="Layer_1" xmlns="http://www.w3.org/2000/svg" xmlns:xlink="http://www.w3.org/1999/xlink" x="0px" y="0px"
	 width="100%" viewBox="0 0 200 200" enable-background="new 0 0 200 200" xml:space="preserve">
<path fill="#FEFEFE" opacity="1.000000" stroke="none" 
	d="
M1.293190,188.281464 
	C1.000000,127.071411 1.042895,66.142715 0.894314,5.214495 
	C0.885320,1.526309 1.756696,0.900484 5.276007,0.907920 
	C65.871361,1.035942 126.467056,1.000000 187.531342,1.000000 
	C189.868942,2.477907 190.523743,4.561852 190.339233,6.762380 
	C189.946518,11.445700 192.187973,13.023529 196.537445,12.626838 
	C197.849060,12.507215 199.192947,12.732038 200.677216,13.752417 
	C201.000000,67.687561 201.000000,121.375122 201.000000,175.531342 
	C199.080582,177.715027 196.686874,177.444687 194.411591,177.472610 
	C191.745697,177.505341 190.729507,178.745361 190.437897,181.371460 
	C189.549744,189.369720 189.201233,189.789246 181.707016,190.400665 
	C178.489532,190.663147 177.365814,192.062042 177.447037,195.065033 
	C177.495621,196.860809 177.542175,198.712112 176.250549,200.668839 
	C122.312439,201.000000 68.624878,201.000000 14.468657,201.000000 
	C12.386129,199.220535 12.529615,196.991364 12.580930,194.861267 
	C12.657658,191.676224 11.190706,190.380051 8.075273,190.403244 
	C5.781190,190.420334 3.372058,190.493439 1.293190,188.281464 
z"/>
<path fill="#000000" opacity="1.000000" stroke="none" 
	d="
M176.468674,201.000000 
	C176.000305,200.500427 175.999008,200.000839 176.001190,199.501266 
	C176.015015,196.337677 174.973862,192.590759 176.316315,190.160950 
	C177.925186,187.248947 182.019363,189.498962 184.992905,189.035431 
	C187.749054,188.605789 188.885696,187.179749 189.038132,184.418701 
	C189.503067,175.997345 189.568848,176.000977 198.073700,176.000946 
	C198.739807,176.000946 199.405899,176.000900 200.536011,176.000443 
	C201.000000,183.433731 200.864578,190.871353 201.077438,198.298996 
	C201.146881,200.721802 200.516830,201.121262 198.245773,201.064804 
	C191.146820,200.888290 184.040695,201.000000 176.468674,201.000000 
z"/>
<path fill="#000000" opacity="1.000000" stroke="none" 
	d="
M201.000000,13.523338 
	C200.007584,13.999678 199.015182,13.999117 198.022766,13.999071 
	C189.529846,13.998681 189.467697,14.001782 189.054321,5.643729 
	C188.973770,4.015467 188.507156,2.794732 187.696503,1.362235 
	C188.327408,1.000000 188.654816,1.000000 188.982224,1.000000 
	C192.911118,1.000000 198.608932,-0.546435 200.310883,1.400401 
	C202.334030,3.714635 200.922974,9.031117 201.000000,13.523338 
z"/>
<path fill="#000000" opacity="1.000000" stroke="none" 
	d="
M1.000000,188.476654 
	C2.682594,186.663239 3.137508,189.176544 4.708228,189.134949 
	C7.741614,189.054581 12.163233,187.482071 13.545837,189.864182 
	C15.061222,192.475067 13.960469,196.604385 13.999882,200.536011 
	C13.672592,201.000000 13.345185,201.000000 13.017777,201.000000 
	C9.088887,201.000000 3.391059,202.546417 1.689142,200.599579 
	C-0.333997,198.285309 1.077035,192.968887 1.000000,188.476654 
z"/>
<path fill="#000000" opacity="1.000000" stroke="none" 
	d="
M129.999908,163.999054 
	C100.849213,163.999298 72.198082,163.928329 43.548237,164.088791 
	C39.919991,164.109116 38.731461,163.404465 38.891590,159.545090 
	C39.204094,152.013138 38.917343,151.645142 31.382715,152.127335 
	C26.540911,152.437180 25.886236,150.626221 25.907490,146.369034 
	C26.074625,112.888481 26.012468,79.406715 25.984028,45.925354 
	C25.980724,42.035698 24.958933,37.866096 31.516071,38.705383 
	C37.909405,39.523697 38.863377,34.632561 38.879940,29.984362 
	C38.891594,26.713701 39.763596,25.908218 42.995495,25.924547 
	C69.646660,26.059196 96.299522,26.095516 122.949875,25.895782 
	C126.809044,25.866858 127.125206,27.303606 127.067345,30.460407 
	C126.910889,38.996552 127.042404,38.999310 118.537842,38.999294 
	C98.882103,38.999256 79.226288,39.030285 59.570671,38.980442 
	C53.233997,38.964375 51.058968,40.423744 52.043274,46.616817 
	C52.809338,51.436737 50.648556,52.653439 46.376869,52.011734 
	C41.134010,51.224140 38.986393,52.402565 38.991768,59.315983 
	C39.009762,82.469765 38.998833,105.623566 38.998695,128.777359 
	C38.998642,137.772263 38.968624,138.206329 47.675575,138.801636 
	C51.640648,139.072723 52.176304,140.227722 52.073620,143.644043 
	C51.852623,150.996399 52.021618,151.001358 59.182659,151.001328 
	C82.836174,151.001236 106.489693,151.001083 130.143204,151.001328 
	C138.029495,151.001404 138.258698,151.019913 138.882126,143.086075 
	C139.117737,140.087402 139.464493,139.043304 142.874832,138.854370 
	C151.018906,138.403152 151.001480,138.097229 151.001297,129.855881 
	C151.000854,109.533844 151.155319,89.209702 150.877930,68.891449 
	C150.818298,64.523979 152.142242,63.510860 156.124344,63.915218 
	C158.530273,64.159523 161.107483,64.535645 163.570297,63.371109 
	C164.461060,64.827705 163.970139,66.483269 163.972351,68.041466 
	C164.009933,94.360115 163.893433,120.679710 164.109207,146.996643 
	C164.143295,151.154541 163.145691,152.803894 158.993561,152.011536 
	C158.511383,151.919540 157.982285,152.076004 157.498993,151.986862 
	C152.968246,151.151215 151.597717,152.963684 151.892029,157.510834 
	C152.310760,163.979630 151.997223,163.999802 145.491043,163.999420 
	C140.493988,163.999115 135.496933,163.999161 129.999908,163.999054 
z"/>
<path fill="#000000" opacity="1.000000" stroke="none" 
	d="
M113.999596,107.911522 
	C114.735245,112.720230 113.345352,114.343452 108.582840,114.129227 
	C98.937798,113.695374 89.258125,113.908066 79.595932,114.058876 
	C76.900177,114.100937 75.873543,113.550255 75.926865,110.581161 
	C76.115356,100.086845 76.060242,89.586472 75.953568,79.089859 
	C75.930382,76.808273 76.395889,75.907578 78.924484,75.941010 
	C89.586952,76.081970 100.254738,76.124420 110.915154,75.920105 
	C113.873192,75.863411 114.056274,77.127441 114.035179,79.429527 
	C113.949661,88.760025 113.999557,98.091766 113.999596,107.911522 
z"/>
</svg>