<svg version="1.1" id="Layer_1" xmlns="http://www.w3.org/2000/svg" xmlns:xlink="http://www.w3.org/1999/xlink" x="0px" y="0px"
	 width="100%" viewBox="0 0 100 100" enable-background="new 0 0 100 100" xml:space="preserve">
<path fill="#FEFEFE" opacity="1.000000" stroke="none" 
	d="
M101.000000,32.000000 
	C101.000000,54.898914 101.000000,77.797829 101.000000,101.000000 
	C90.981148,101.000000 80.959229,101.000000 70.468681,100.531342 
	C70.000046,85.810997 70.000046,71.559311 70.000046,55.687012 
	C67.054825,57.434307 64.887680,58.403507 63.131016,59.865814 
	C61.809090,60.966232 61.013618,62.699085 59.983799,64.150406 
	C59.655865,63.993187 59.327934,63.835964 59.000000,63.678745 
	C59.000000,76.119164 59.000000,88.559578 59.000000,101.000000 
	C39.712997,101.000000 20.425995,101.000000 1.069496,101.000000 
	C1.069496,67.666687 1.069496,34.333355 1.069496,1.000000 
	C9.100994,1.000000 17.081818,1.000000 25.531963,1.433293 
	C27.724495,9.869086 27.179165,17.863083 26.468573,26.216860 
	C48.910065,26.216860 71.910286,26.216860 94.851074,26.216860 
	C94.993980,28.356209 95.112099,30.124441 95.237381,32.000000 
	C97.369034,32.000000 99.184517,32.000000 101.000000,32.000000 
z"/>
<path fill="#000000" opacity="1.000000" stroke="none" 
	d="
M101.000000,31.531342 
	C99.184517,32.000000 97.369034,32.000000 95.237381,32.000000 
	C95.112099,30.124441 94.993980,28.356209 94.851074,26.216860 
	C71.910286,26.216860 48.910065,26.216860 26.468573,26.216860 
	C27.179165,17.863083 27.724495,9.869086 26.000643,1.433293 
	C50.896366,1.000000 75.792732,1.000000 101.000000,1.000000 
	C101.000000,11.018751 101.000000,21.040718 101.000000,31.531342 
z"/>
<path fill="#000000" opacity="1.000000" stroke="none" 
	d="
M59.458069,101.000000 
	C59.000000,88.559578 59.000000,76.119164 59.000000,63.678745 
	C59.327934,63.835964 59.655865,63.993187 59.983799,64.150406 
	C61.013618,62.699085 61.809090,60.966232 63.131016,59.865814 
	C64.887680,58.403507 67.054825,57.434307 70.000046,55.687012 
	C70.000046,71.559311 70.000046,85.810997 70.000023,100.531342 
	C66.638710,101.000000 63.277424,101.000000 59.458069,101.000000 
z"/>
</svg>