<svg version="1.1" id="Layer_1" xmlns="http://www.w3.org/2000/svg" xmlns:xlink="http://www.w3.org/1999/xlink" x="0px" y="0px"
	 width="100%" viewBox="0 0 91 150" enable-background="new 0 0 91 150" xml:space="preserve">
<path fill="#FFFFFF" opacity="1.000000" stroke="none" 
	d="
M27.243876,150.746994 
	C19.979052,151.000000 12.958103,151.000000 5.468577,151.000000 
	C4.109959,149.743698 2.577872,149.373825 1.229075,148.217316 
	C1.000000,138.645767 1.000000,129.291550 1.000000,119.468658 
	C5.926340,115.516045 9.593049,110.709900 13.883352,106.564629 
	C23.552553,97.222313 32.785946,87.430260 42.519966,78.149139 
	C44.714046,76.057152 45.038212,74.629890 42.926189,72.003922 
	C37.905888,65.761963 31.597589,60.842949 26.154404,55.029434 
	C18.250082,46.587349 9.906507,38.481823 1.253570,30.240330 
	C1.000000,21.233850 1.119467,12.465014 0.922494,3.703293 
	C0.867983,1.278531 1.487733,0.891830 3.757859,0.935433 
	C12.190104,1.097391 20.627329,1.000000 29.531342,1.000000 
	C38.431416,9.204040 46.660572,17.609554 54.944439,25.957287 
	C60.302757,31.356909 65.650291,36.811726 71.177292,42.059555 
	C78.150352,48.680397 84.779388,55.636532 91.746849,62.755424 
	C92.000000,70.354256 92.000000,77.708504 92.000000,85.531380 
	C79.349571,99.898720 65.678284,112.787514 52.360405,126.024887 
	C44.111824,134.223633 36.406456,142.976349 27.243876,150.746994 
z"/>
<path fill="#000000" opacity="1.000000" stroke="none" 
	d="
M27.468658,151.000000 
	C25.914871,147.413177 29.772068,147.071304 31.188204,145.751099 
	C36.247799,141.034210 41.271515,136.092377 45.830128,131.082489 
	C52.499821,123.752518 59.685936,116.853233 66.565735,109.808586 
	C72.123520,104.117622 77.297691,97.716736 83.927841,93.011208 
	C86.698807,91.044609 87.626556,87.166977 91.587479,85.999847 
	C92.000000,106.596870 91.927406,127.194305 92.084496,147.789978 
	C92.106079,150.620178 91.435005,151.094528 88.730812,151.075912 
	C68.467094,150.936432 48.201988,151.000000 27.468658,151.000000 
z"/>
<path fill="#000000" opacity="1.000000" stroke="none" 
	d="
M1.000000,30.468658 
	C4.953525,28.429461 5.254567,32.681263 6.921131,34.182751 
	C13.041230,39.696655 18.139236,46.391205 24.473124,51.607914 
	C30.168953,56.299099 33.615955,63.188137 40.593788,66.728218 
	C42.672482,67.782806 43.557468,71.785980 46.512562,73.379433 
	C47.317211,73.813309 47.551647,75.645226 46.008274,77.045029 
	C41.792042,80.869049 37.438282,84.483696 33.758663,89.005836 
	C30.581499,92.910477 26.063475,95.850517 22.672174,99.758247 
	C17.007889,106.285088 9.575582,111.110870 4.761916,118.476151 
	C4.276270,119.219238 2.726087,119.266579 1.334965,119.318398 
	C1.000000,89.645775 1.000000,60.291542 1.000000,30.468658 
z"/>
<path fill="#000000" opacity="1.000000" stroke="none" 
	d="
M92.000000,62.531342 
	C88.621788,64.347000 87.930092,60.519653 86.519341,59.330254 
	C80.464500,54.225418 75.548019,47.792698 69.648964,42.473499 
	C65.172386,38.436951 61.936043,33.252396 56.984573,29.714966 
	C50.982056,25.426653 47.429718,18.643623 40.943916,14.500366 
	C38.706402,13.071001 36.199291,9.300191 33.967136,6.480682 
	C32.597443,4.750573 30.939087,3.248989 29.705177,1.322393 
	C49.597027,1.000000 69.194679,1.076001 88.790382,0.915307 
	C91.620316,0.892100 92.096153,1.564446 92.076118,4.268625 
	C91.933372,23.532442 92.000000,42.797810 92.000000,62.531342 
z"/>
<path fill="#000000" opacity="1.000000" stroke="none" 
	d="
M1.000000,148.500000 
	C2.605794,148.208557 5.079967,146.799652 5.000122,150.573822 
	C3.748004,150.170654 0.685187,152.962967 1.000000,148.500000 
z"/>
</svg>