<svg version="1.1" id="Layer_1" xmlns="http://www.w3.org/2000/svg" xmlns:xlink="http://www.w3.org/1999/xlink" x="0px" y="0px"
	 width="100%" viewBox="0 0 250 66" enable-background="new 0 0 250 66" xml:space="preserve">
<path fill="#FFFFFF" opacity="1.000000" stroke="none" 
	d="
M131.000000,1.000000 
	C140.687561,1.000000 150.375122,1.000000 160.236984,1.322651 
	C166.222061,6.188148 173.277023,9.742936 174.256973,17.970575 
	C172.336411,19.121389 170.999588,19.928627 169.656891,20.725927 
	C163.090424,24.625120 161.405350,24.394323 156.548035,20.111702 
	C152.243683,16.316612 148.066711,13.600019 141.273880,15.754364 
	C129.643997,19.442791 124.264549,29.180004 128.995331,40.596535 
	C133.847229,52.305340 141.749817,52.670128 151.270645,49.726955 
	C153.578293,49.013596 158.932083,48.697144 157.742950,42.922188 
	C152.531097,42.922188 147.433350,42.922188 142.222183,42.922188 
	C142.222183,38.152584 142.222183,33.750366 142.222183,29.215515 
	C153.842377,29.215515 165.240601,29.215515 177.723160,29.215515 
	C176.869965,35.788376 176.851364,42.268417 175.045059,48.204483 
	C172.903549,55.242195 167.337433,60.007122 160.924744,63.663467 
	C159.962006,64.212387 159.625961,65.860413 159.000000,67.000000 
	C149.979111,67.000000 140.958206,67.000000 131.779602,66.679596 
	C130.785187,65.573196 130.077347,64.377975 129.090927,64.067314 
	C122.438766,61.972263 111.067528,49.370064 111.165108,42.667221 
	C111.272919,35.261112 109.957939,27.890066 112.726463,20.335432 
	C115.324654,13.245631 120.544060,9.350637 125.751663,5.006072 
	C127.440025,3.597503 129.247177,2.331315 131.000000,1.000000 
z"/>
<path fill="#FFFFFF" opacity="1.000000" stroke="none" 
	d="
M251.000000,20.999998 
	C251.000000,28.687576 251.000000,36.375153 250.670151,44.216400 
	C249.560852,45.221691 248.571152,45.961342 248.045578,46.948174 
	C246.941742,49.020718 246.610016,51.795124 245.020706,53.262913 
	C240.591812,57.353195 237.478271,63.342655 230.530380,64.208252 
	C230.242126,64.244164 230.171844,66.029625 230.000000,67.000000 
	C221.312439,67.000000 212.624863,67.000000 203.784119,66.668945 
	C202.942841,65.561371 202.392242,64.550797 201.541550,64.051033 
	C198.690994,62.376400 195.192307,61.438168 192.918533,59.217743 
	C186.227921,52.684113 181.401245,44.976345 182.063141,35.098114 
	C182.363907,30.609646 183.250946,26.151718 184.018372,21.705193 
	C185.354462,13.963814 190.772888,9.268986 196.716202,4.989046 
	C198.506561,3.699761 200.240311,2.331875 202.000000,0.999999 
	C211.687561,1.000000 221.375122,1.000000 231.236343,1.328116 
	C235.009109,4.343852 239.069748,6.604799 242.067932,9.847954 
	C244.679993,12.673458 245.996490,16.668833 248.117050,19.999849 
	C248.545212,20.672428 250.012039,20.683792 251.000000,20.999998 
M200.001617,38.416950 
	C205.365082,53.144028 219.823242,54.827168 229.723190,44.994835 
	C235.144440,39.610611 235.857193,28.418957 230.800034,22.844492 
	C228.128006,19.899130 224.303513,17.128578 220.534225,16.229906 
	C212.597733,14.337682 205.456085,16.809303 201.440170,24.402773 
	C199.347168,28.360285 195.548416,32.693081 200.001617,38.416950 
z"/>
<path fill="#FFFFFF" opacity="1.000000" stroke="none" 
	d="
M85.000000,67.000000 
	C75.979103,67.000000 66.958206,67.000000 57.760666,66.689194 
	C55.458530,64.600792 53.578831,62.325153 51.164185,61.133484 
	C41.680786,56.453278 38.114399,48.230591 37.057259,38.475048 
	C36.701500,35.192078 36.616253,31.780834 37.100166,28.531389 
	C37.678162,24.650211 38.417965,20.592932 40.128189,17.125074 
	C43.072701,11.154416 48.134659,6.867234 53.591686,3.114194 
	C54.465721,2.513083 55.200722,1.709813 56.000000,0.999999 
	C66.020897,1.000000 76.041786,1.000000 86.241943,1.298358 
	C91.782204,6.924443 98.627022,10.605379 102.184120,17.946735 
	C106.199944,26.234861 106.352898,34.966763 104.063194,43.012051 
	C101.443924,52.215328 96.391273,60.771805 86.034882,64.134674 
	C85.442268,64.327095 85.333794,66.010506 85.000000,67.000000 
M85.751541,24.972807 
	C85.328842,23.974829 85.093094,22.832687 84.452866,22.002455 
	C80.531502,16.917257 70.366882,13.958567 64.578239,16.121235 
	C59.180248,18.137955 52.748707,26.930328 53.075550,32.702358 
	C53.500641,40.209518 57.251781,47.292648 64.910896,49.907349 
	C73.127510,52.712364 78.623428,51.286453 84.433762,43.398121 
	C87.090790,39.790844 89.278015,36.321922 88.893600,31.898975 
	C88.692467,29.584904 87.382553,27.367205 85.751541,24.972807 
z"/>
<path fill="#000000" opacity="1.000000" stroke="none" 
	d="
M201.531342,0.999999 
	C200.240311,2.331875 198.506561,3.699761 196.716202,4.989046 
	C190.772888,9.268986 185.354462,13.963814 184.018372,21.705193 
	C183.250946,26.151718 182.363907,30.609646 182.063141,35.098114 
	C181.401245,44.976345 186.227921,52.684113 192.918533,59.217743 
	C195.192307,61.438168 198.690994,62.376400 201.541550,64.051033 
	C202.392242,64.550797 202.942841,65.561371 203.315460,66.668945 
	C188.645767,67.000000 174.291550,67.000000 159.468658,67.000000 
	C159.625961,65.860413 159.962006,64.212387 160.924744,63.663467 
	C167.337433,60.007122 172.903549,55.242195 175.045059,48.204483 
	C176.851364,42.268417 176.869965,35.788376 177.723160,29.215515 
	C165.240601,29.215515 153.842377,29.215515 142.222183,29.215515 
	C142.222183,33.750366 142.222183,38.152584 142.222183,42.922188 
	C147.433350,42.922188 152.531097,42.922188 157.742950,42.922188 
	C158.932083,48.697144 153.578293,49.013596 151.270645,49.726955 
	C141.749817,52.670128 133.847229,52.305340 128.995331,40.596535 
	C124.264549,29.180004 129.643997,19.442791 141.273880,15.754364 
	C148.066711,13.600019 152.243683,16.316612 156.548035,20.111702 
	C161.405350,24.394323 163.090424,24.625120 169.656891,20.725927 
	C170.999588,19.928627 172.336411,19.121389 174.256973,17.970575 
	C173.277023,9.742936 166.222061,6.188148 160.705643,1.322651 
	C174.354233,1.000000 187.708450,1.000000 201.531342,0.999999 
z"/>
<path fill="#000000" opacity="1.000000" stroke="none" 
	d="
M55.531342,0.999999 
	C55.200722,1.709813 54.465721,2.513083 53.591686,3.114194 
	C48.134659,6.867234 43.072701,11.154416 40.128189,17.125074 
	C38.417965,20.592932 37.678162,24.650211 37.100166,28.531389 
	C36.616253,31.780834 36.701500,35.192078 37.057259,38.475048 
	C38.114399,48.230591 41.680786,56.453278 51.164185,61.133484 
	C53.578831,62.325153 55.458530,64.600792 57.292007,66.689194 
	C50.978848,67.000000 44.957695,67.000000 38.121258,66.618401 
	C37.614292,61.228455 37.922611,56.220104 38.256317,50.799385 
	C30.329748,50.799385 23.253721,50.799385 16.000000,50.799385 
	C16.000000,33.936054 16.000000,17.468027 16.000000,1.000000 
	C29.020895,1.000000 42.041790,1.000000 55.531342,0.999999 
z"/>
<path fill="#FFFFFF" opacity="1.000000" stroke="none" 
	d="
M15.527336,1.000000 
	C16.000000,17.468027 16.000000,33.936054 16.000000,50.799385 
	C23.253721,50.799385 30.329748,50.799385 38.256317,50.799385 
	C37.922611,56.220104 37.614292,61.228455 37.652985,66.618401 
	C25.713409,67.000000 13.426818,67.000000 1.070113,67.000000 
	C1.070113,45.000061 1.070113,23.000057 1.070113,1.000000 
	C5.756721,1.000000 10.405697,1.000000 15.527336,1.000000 
z"/>
<path fill="#000000" opacity="1.000000" stroke="none" 
	d="
M85.468658,67.000000 
	C85.333794,66.010506 85.442268,64.327095 86.034882,64.134674 
	C96.391273,60.771805 101.443924,52.215328 104.063194,43.012051 
	C106.352898,34.966763 106.199944,26.234861 102.184120,17.946735 
	C98.627022,10.605379 91.782204,6.924443 86.710602,1.298358 
	C101.354225,1.000000 115.708458,1.000000 130.531342,1.000000 
	C129.247177,2.331315 127.440025,3.597503 125.751663,5.006072 
	C120.544060,9.350637 115.324654,13.245631 112.726463,20.335432 
	C109.957939,27.890066 111.272919,35.261112 111.165108,42.667221 
	C111.067528,49.370064 122.438766,61.972263 129.090927,64.067314 
	C130.077347,64.377975 130.785187,65.573196 131.310944,66.679596 
	C115.979103,67.000000 100.958214,67.000000 85.468658,67.000000 
z"/>
<path fill="#000000" opacity="1.000000" stroke="none" 
	d="
M230.468933,67.000000 
	C230.171844,66.029625 230.242126,64.244164 230.530380,64.208252 
	C237.478271,63.342655 240.591812,57.353195 245.020706,53.262913 
	C246.610016,51.795124 246.941742,49.020718 248.045578,46.948174 
	C248.571152,45.961342 249.560852,45.221691 250.670151,44.685036 
	C251.000000,52.257786 251.000000,59.515568 251.000000,67.000000 
	C244.314316,67.000000 237.626068,67.000000 230.468933,67.000000 
z"/>
<path fill="#000000" opacity="1.000000" stroke="none" 
	d="
M251.000000,20.530956 
	C250.012039,20.683792 248.545212,20.672428 248.117050,19.999849 
	C245.996490,16.668833 244.679993,12.673458 242.067932,9.847954 
	C239.069748,6.604799 235.009109,4.343852 231.705002,1.328116 
	C238.261261,1.000000 244.522537,1.000000 251.000000,1.000000 
	C251.000000,7.352347 251.000000,13.707130 251.000000,20.530956 
z"/>
<path fill="#000000" opacity="1.000000" stroke="none" 
	d="
M199.999573,38.008755 
	C195.548416,32.693081 199.347168,28.360285 201.440170,24.402773 
	C205.456085,16.809303 212.597733,14.337682 220.534225,16.229906 
	C224.303513,17.128578 228.128006,19.899130 230.800034,22.844492 
	C235.857193,28.418957 235.144440,39.610611 229.723190,44.994835 
	C219.823242,54.827168 205.365082,53.144028 199.999573,38.008755 
z"/>
<path fill="#000000" opacity="1.000000" stroke="none" 
	d="
M86.162468,25.039394 
	C87.382553,27.367205 88.692467,29.584904 88.893600,31.898975 
	C89.278015,36.321922 87.090790,39.790844 84.433762,43.398121 
	C78.623428,51.286453 73.127510,52.712364 64.910896,49.907349 
	C57.251781,47.292648 53.500641,40.209518 53.075550,32.702358 
	C52.748707,26.930328 59.180248,18.137955 64.578239,16.121235 
	C70.366882,13.958567 80.531502,16.917257 84.452866,22.002455 
	C85.093094,22.832687 85.328842,23.974829 86.162468,25.039394 
z"/>
</svg>