<svg version="1.1" id="Layer_1" xmlns="http://www.w3.org/2000/svg" xmlns:xlink="http://www.w3.org/1999/xlink" x="0px" y="0px"
	 width="100%" viewBox="0 0 204 204" enable-background="new 0 0 204 204" xml:space="preserve">
<path fill="#000000" opacity="1.000000" stroke="none" 
	d="
M122.000000,1.000002 
	C149.593109,1.000000 177.186234,1.000000 205.000000,1.000000 
	C205.000000,28.020494 205.000000,55.041588 204.612442,82.660332 
	C203.509216,81.501045 202.597015,79.796455 202.112671,77.977898 
	C200.229187,70.906143 196.097061,68.628723 188.589096,70.932220 
	C182.665558,73.050606 179.813583,79.006157 181.202911,85.422592 
	C181.891907,88.604614 182.703171,91.801811 182.949631,95.031029 
	C184.241547,111.958260 181.023438,127.981285 172.600388,143.127289 
	C167.170074,149.851593 162.032486,156.400772 156.587036,163.093399 
	C151.151184,166.807892 146.023224,170.378937 140.573029,174.105270 
	C135.821823,176.126144 131.392853,177.991730 126.568054,179.917542 
	C117.114502,181.040390 108.056778,182.102997 98.551750,183.100983 
	C95.180923,182.735367 92.182320,182.748123 89.349060,182.070007 
	C82.868080,180.518845 76.467918,178.629974 69.854111,176.584076 
	C55.867474,169.904739 44.916237,160.139603 35.906246,147.584290 
	C33.128819,142.026535 30.144842,136.927704 27.944292,131.510651 
	C22.560717,118.258018 21.975647,104.469322 23.764143,90.383598 
	C25.067188,80.121170 29.094725,70.962944 34.003662,61.685543 
	C40.689613,51.863243 47.656563,42.689568 57.836010,36.792511 
	C64.700058,32.816101 71.925308,29.463194 79.385544,25.880711 
	C82.770561,25.283470 85.739471,24.519468 88.752075,24.018078 
	C93.167244,23.283260 97.613701,22.736452 102.463501,22.091963 
	C109.910271,23.092571 116.940369,24.110743 124.184891,25.436167 
	C125.962837,26.144947 127.610847,26.350861 129.074753,26.983067 
	C134.404327,29.284718 139.672333,31.728891 145.113770,34.425529 
	C148.344879,36.829182 151.467606,38.868446 154.492767,41.043446 
	C156.712418,42.639309 158.804138,44.413147 161.126862,46.437134 
	C163.081818,47.453892 165.067047,49.011997 166.602295,48.651855 
	C170.074066,47.837444 174.055878,46.833729 176.470322,44.500034 
	C179.218231,41.844044 180.882889,37.114662 177.724670,33.768440 
	C172.951508,28.711119 167.312286,24.471188 161.890701,19.577663 
	C156.492966,16.236212 151.245621,13.200997 145.668610,9.990196 
	C138.558853,7.598449 131.778778,5.382289 124.618507,3.099333 
	C123.492203,2.355026 122.746101,1.677515 122.000000,1.000002 
M124.459915,98.032066 
	C123.836609,98.952171 123.213310,99.872269 123.424973,99.559814 
	C122.369354,97.097511 121.864182,93.319580 119.735214,91.763977 
	C117.986916,90.486534 113.904274,91.070183 111.601479,92.265045 
	C109.354759,93.430809 108.239090,96.128616 109.730408,99.438690 
	C112.341492,105.234154 117.009689,102.342125 121.191788,102.730293 
	C117.976288,107.040749 114.858994,111.219551 111.650024,115.521255 
	C120.802254,118.430443 121.122238,109.299255 126.539696,105.583023 
	C123.863716,110.479591 124.739944,114.100281 128.802383,115.758270 
	C130.878220,116.605469 134.837662,116.363022 136.035858,114.970146 
	C137.645615,113.098785 138.726059,107.990387 137.710464,107.178825 
	C134.976624,104.994179 131.009964,104.352242 127.655724,103.142296 
	C129.995544,100.002777 133.123398,95.805916 136.266251,91.588928 
	C129.615128,88.920937 127.922852,94.293472 124.459915,98.032066 
M98.538834,91.000000 
	C96.223915,91.000000 93.909004,91.000000 91.094025,91.000000 
	C90.405746,95.503128 89.734848,99.892540 88.906364,105.312981 
	C91.775749,105.312981 94.505249,105.224754 97.224335,105.354660 
	C98.376389,105.409698 99.785835,105.628021 100.539047,106.341461 
	C100.971855,106.751404 100.669945,108.677498 100.066154,109.231071 
	C99.474052,109.773933 98.033493,109.662468 97.047699,109.452087 
	C94.480789,108.904282 91.959053,108.144791 89.199760,107.411385 
	C89.246109,113.926865 91.371765,116.345604 96.765968,116.998383 
	C101.531395,117.575066 107.356071,114.398010 107.737404,110.196304 
	C108.009926,107.193436 107.545921,103.230339 105.731812,101.183762 
	C103.932411,99.153786 100.031380,98.986740 97.052063,98.002663 
	C97.040039,97.755455 97.028015,97.508247 97.015984,97.261040 
	C100.302399,97.098396 103.588821,96.935753 107.049324,96.764488 
	C106.954155,94.668419 106.875420,92.934509 106.787582,91.000000 
	C104.112144,91.000000 101.803932,91.000000 98.538834,91.000000 
M81.039505,91.018188 
	C80.540367,91.011314 80.018349,91.098381 79.545570,90.983253 
	C73.884254,89.604683 68.275131,92.213493 67.080589,96.808884 
	C65.453514,103.068192 68.121468,107.456413 74.686661,109.286621 
	C73.414848,111.372223 72.146484,113.452187 70.927177,115.451698 
	C78.060417,117.901291 81.249924,113.914505 83.764938,108.645111 
	C88.308708,99.125084 88.478081,97.447067 81.039505,91.018188 
z"/>
<path fill="#000000" opacity="1.000000" stroke="none" 
	d="
M205.000000,123.000000 
	C205.000000,150.259781 205.000000,177.519547 205.000000,205.000000 
	C178.312851,205.000000 151.625076,205.000000 124.318115,204.640640 
	C125.166161,203.539398 126.633400,202.797516 128.495117,202.031189 
	C133.260040,200.616043 137.630463,199.225357 142.346603,197.780304 
	C148.160889,194.503036 153.629456,191.280136 159.449188,188.020721 
	C164.879303,183.695938 169.958252,179.407654 175.340103,174.970184 
	C180.461823,168.565704 185.280640,162.310379 190.394974,155.876801 
	C196.684921,146.368408 200.405731,136.121017 203.043549,125.414238 
	C203.267792,124.504074 204.328094,123.799881 205.000000,123.000000 
z"/>
<path fill="#000000" opacity="1.000000" stroke="none" 
	d="
M83.000000,205.000000 
	C55.739769,205.000000 28.479540,205.000000 1.000000,205.000000 
	C1.000000,177.979507 1.000000,150.958405 1.395290,123.336197 
	C2.169393,123.228470 2.792576,123.677605 2.891131,124.221756 
	C5.122213,136.540268 9.837845,147.817413 16.981796,158.455704 
	C22.661272,165.241058 28.308186,171.676559 34.095818,178.412750 
	C44.330765,188.845612 56.613571,195.272186 70.343430,200.017670 
	C74.189400,201.137665 77.714050,201.995514 81.169731,203.074280 
	C81.908234,203.304840 82.396469,204.337082 83.000000,205.000000 
z"/>
<path fill="#000000" opacity="1.000000" stroke="none" 
	d="
M1.000000,83.000000 
	C1.000000,55.739769 1.000000,28.479540 1.000000,1.000000 
	C28.020498,1.000000 55.041592,1.000000 82.687271,1.354072 
	C81.859932,2.436142 80.407997,3.164140 78.552429,3.937446 
	C72.315094,5.900710 66.356430,7.509123 60.674477,9.802974 
	C49.835728,14.178671 40.609818,21.125479 31.657036,29.031038 
	C26.887129,34.748463 22.425177,40.313725 17.661148,46.058086 
	C10.606904,57.237988 4.881626,68.651947 2.871239,81.608093 
	C2.786273,82.155663 1.647727,82.539749 1.000000,83.000000 
z"/>
<path fill="#A13582" opacity="1.000000" stroke="none" 
	d="
M1.000000,83.468658 
	C1.647727,82.539749 2.786273,82.155663 2.871239,81.608093 
	C4.881626,68.651947 10.606904,57.237988 17.719408,46.482178 
	C18.386486,48.842014 18.942335,50.954960 18.958477,53.072018 
	C19.045931,64.543037 19.086994,76.015930 18.974581,87.486511 
	C18.869560,98.202461 18.447092,108.915535 18.367655,119.631386 
	C18.317406,126.409920 18.932611,133.200928 18.707964,139.968353 
	C18.506847,146.026962 17.564526,152.060974 16.949230,158.105835 
	C9.837845,147.817413 5.122213,136.540268 2.891131,124.221756 
	C2.792576,123.677605 2.169393,123.228470 1.395290,122.867538 
	C1.000000,109.979103 1.000000,96.958214 1.000000,83.468658 
z"/>
<path fill="#5730B4" opacity="1.000000" stroke="none" 
	d="
M205.000000,122.531342 
	C204.328094,123.799881 203.267792,124.504074 203.043549,125.414238 
	C200.405731,136.121017 196.684921,146.368408 190.081177,155.590057 
	C189.314560,153.513077 189.023544,151.544800 189.020218,149.576050 
	C188.976105,123.346039 188.972260,97.115959 188.958374,70.885902 
	C196.097061,68.628723 200.229187,70.906143 202.112671,77.977898 
	C202.597015,79.796455 203.509216,81.501045 204.612442,83.128990 
	C205.000000,96.020897 205.000000,109.041786 205.000000,122.531342 
z"/>
<path fill="#823397" opacity="1.000000" stroke="none" 
	d="
M83.466858,205.000000 
	C82.396469,204.337082 81.908234,203.304840 81.169731,203.074280 
	C77.714050,201.995514 74.189400,201.137665 70.344223,199.560959 
	C70.011017,191.573456 70.022972,184.225845 70.034935,176.878250 
	C76.467918,178.629974 82.868080,180.518845 89.349060,182.070007 
	C92.182320,182.748123 95.180923,182.735367 98.552185,183.557770 
	C98.999947,191.052780 98.999977,198.026398 99.000000,205.000000 
	C93.977905,205.000000 88.955818,205.000000 83.466858,205.000000 
z"/>
<path fill="#78329E" opacity="1.000000" stroke="none" 
	d="
M99.468651,205.000000 
	C98.999977,198.026398 98.999947,191.052780 98.999489,183.622391 
	C108.056778,182.102997 117.114502,181.040390 126.578735,180.396927 
	C126.989853,183.925507 126.857330,187.042725 127.033417,190.142410 
	C127.259415,194.120865 127.733452,198.085205 128.100632,202.055634 
	C126.633400,202.797516 125.166161,203.539398 123.849457,204.640640 
	C115.979103,205.000000 107.958199,205.000000 99.468651,205.000000 
z"/>
<path fill="#78329E" opacity="1.000000" stroke="none" 
	d="
M121.531464,1.000002 
	C122.746101,1.677515 123.492203,2.355026 124.618919,3.546767 
	C124.656509,11.083635 124.313492,18.106276 123.970467,25.128914 
	C116.940369,24.110743 109.910271,23.092571 102.295059,21.699858 
	C101.473305,14.550210 101.236656,7.775105 101.000000,1.000000 
	C107.687645,1.000000 114.375290,1.000000 121.531464,1.000002 
z"/>
<path fill="#823397" opacity="1.000000" stroke="none" 
	d="
M100.532059,1.000000 
	C101.236656,7.775105 101.473305,14.550210 101.878387,21.717421 
	C97.613701,22.736452 93.167244,23.283260 88.752075,24.018078 
	C85.739471,24.519468 82.770561,25.283470 79.388062,25.423967 
	C78.981354,17.909302 78.968704,10.900720 78.956062,3.892138 
	C80.407997,3.164140 81.859932,2.436142 83.155930,1.354072 
	C88.688042,1.000000 94.376083,1.000000 100.532059,1.000000 
z"/>
<path fill="#9B3586" opacity="1.000000" stroke="none" 
	d="
M16.981794,158.455704 
	C17.564526,152.060974 18.506847,146.026962 18.707964,139.968353 
	C18.932611,133.200928 18.317406,126.409920 18.367655,119.631386 
	C18.447092,108.915535 18.869560,98.202461 18.974581,87.486511 
	C19.086994,76.015930 19.045931,64.543037 18.958477,53.072018 
	C18.942335,50.954960 18.386486,48.842014 18.021484,46.303078 
	C22.425177,40.313725 26.887129,34.748463 31.668722,29.508444 
	C31.992960,39.071743 31.916037,48.311295 32.084518,57.546364 
	C32.111759,59.039413 33.229809,60.512562 33.843636,61.994911 
	C29.094725,70.962944 25.067188,80.121170 23.764143,90.383598 
	C21.975647,104.469322 22.560717,118.258018 27.944292,131.510651 
	C30.144842,136.927704 33.128819,142.026535 35.734695,147.974640 
	C35.475639,154.091751 35.297768,159.507812 34.982277,164.915863 
	C34.725372,169.319565 34.303703,173.713684 33.955101,178.112045 
	C28.308186,171.676559 22.661272,165.241058 16.981794,158.455704 
z"/>
<path fill="#91348D" opacity="1.000000" stroke="none" 
	d="
M34.003662,61.685543 
	C33.229809,60.512562 32.111759,59.039413 32.084518,57.546364 
	C31.916037,48.311295 31.992960,39.071743 31.976677,29.356277 
	C40.609818,21.125479 49.835728,14.178671 60.674477,9.802974 
	C66.356430,7.509123 72.315094,5.900710 78.552429,3.937445 
	C78.968704,10.900720 78.981354,17.909302 78.991486,25.374626 
	C71.925308,29.463194 64.700058,32.816101 57.836010,36.792511 
	C47.656563,42.689568 40.689613,51.863243 34.003662,61.685543 
z"/>
<path fill="#91348D" opacity="1.000000" stroke="none" 
	d="
M34.095814,178.412750 
	C34.303703,173.713684 34.725372,169.319565 34.982277,164.915863 
	C35.297768,159.507812 35.475639,154.091751 35.884552,148.288818 
	C44.916237,160.139603 55.867474,169.904739 69.854111,176.584076 
	C70.022972,184.225845 70.011017,191.573456 69.998260,199.377747 
	C56.613571,195.272186 44.330765,188.845612 34.095814,178.412750 
z"/>
<path fill="#5C30B0" opacity="1.000000" stroke="none" 
	d="
M188.589111,70.932220 
	C188.972260,97.115959 188.976105,123.346039 189.020218,149.576050 
	C189.023544,151.544800 189.314560,153.513077 189.785645,155.768311 
	C185.280640,162.310379 180.461823,168.565704 175.281647,174.546204 
	C174.711456,168.038300 174.621475,161.798141 174.252426,155.574554 
	C174.002213,151.355057 173.360016,147.158798 172.893112,142.952148 
	C181.023438,127.981285 184.241547,111.958260 182.949631,95.031029 
	C182.703171,91.801811 181.891907,88.604614 181.202911,85.422592 
	C179.813583,79.006157 182.665558,73.050606 188.589111,70.932220 
z"/>
<path fill="#6331AC" opacity="1.000000" stroke="none" 
	d="
M172.600388,143.127289 
	C173.360016,147.158798 174.002213,151.355057 174.252426,155.574554 
	C174.621475,161.798141 174.711456,168.038300 174.978729,174.695374 
	C169.958252,179.407654 164.879303,183.695938 159.135818,187.733246 
	C158.314194,182.347305 158.252640,177.206924 157.963989,172.079361 
	C157.792099,169.025833 157.263260,165.992416 156.894897,162.949951 
	C162.032486,156.400772 167.170074,149.851593 172.600388,143.127289 
z"/>
<path fill="#6F32A4" opacity="1.000000" stroke="none" 
	d="
M124.184891,25.436167 
	C124.313492,18.106276 124.656509,11.083635 124.999115,3.613562 
	C131.778778,5.382289 138.558853,7.598449 145.669022,10.443174 
	C145.653931,18.754272 145.308746,26.436806 144.963562,34.119339 
	C139.672333,31.728891 134.404327,29.284718 129.074753,26.983067 
	C127.610847,26.350861 125.962837,26.144947 124.184891,25.436167 
z"/>
<path fill="#FFFFFF" opacity="1.000000" stroke="none" 
	d="
M124.724777,97.775139 
	C127.922852,94.293472 129.615128,88.920937 136.266251,91.588928 
	C133.123398,95.805916 129.995544,100.002777 127.655724,103.142296 
	C131.009964,104.352242 134.976624,104.994179 137.710464,107.178825 
	C138.726059,107.990387 137.645615,113.098785 136.035858,114.970146 
	C134.837662,116.363022 130.878220,116.605469 128.802383,115.758270 
	C124.739944,114.100281 123.863716,110.479591 126.539696,105.583023 
	C121.122238,109.299255 120.802254,118.430443 111.650024,115.521255 
	C114.858994,111.219551 117.976288,107.040749 121.191788,102.730293 
	C117.009689,102.342125 112.341492,105.234154 109.730408,99.438690 
	C108.239090,96.128616 109.354759,93.430809 111.601479,92.265045 
	C113.904274,91.070183 117.986916,90.486534 119.735214,91.763977 
	C121.864182,93.319580 122.369354,97.097511 123.424973,99.559814 
	C123.213310,99.872269 123.836609,98.952171 124.724777,97.775139 
z"/>
<path fill="#6931A8" opacity="1.000000" stroke="none" 
	d="
M145.113770,34.425529 
	C145.308746,26.436806 145.653931,18.754272 145.998688,10.618761 
	C151.245621,13.200997 156.492966,16.236212 161.877686,20.054642 
	C162.009827,23.667162 162.113159,26.501726 161.976425,29.324663 
	C161.705292,34.922390 161.301712,40.513699 160.952866,46.107666 
	C158.804138,44.413147 156.712418,42.639309 154.492767,41.043446 
	C151.467606,38.868446 148.344879,36.829182 145.113770,34.425529 
z"/>
<path fill="#6931A8" opacity="1.000000" stroke="none" 
	d="
M156.587036,163.093399 
	C157.263260,165.992416 157.792099,169.025833 157.963989,172.079361 
	C158.252640,177.206924 158.314194,182.347305 158.784668,187.769760 
	C153.629456,191.280136 148.160889,194.503036 142.346344,197.323456 
	C142.000244,192.783142 142.142227,188.638931 141.956635,184.509460 
	C141.798035,180.980850 141.263504,177.469162 140.895264,173.949982 
	C146.023224,170.378937 151.151184,166.807892 156.587036,163.093399 
z"/>
<path fill="#FFFFFF" opacity="1.000000" stroke="none" 
	d="
M99.017273,91.000000 
	C101.803932,91.000000 104.112144,91.000000 106.787582,91.000000 
	C106.875420,92.934509 106.954155,94.668419 107.049324,96.764488 
	C103.588821,96.935753 100.302399,97.098396 97.015984,97.261040 
	C97.028015,97.508247 97.040039,97.755455 97.052063,98.002663 
	C100.031380,98.986740 103.932411,99.153786 105.731812,101.183762 
	C107.545921,103.230339 108.009926,107.193436 107.737404,110.196304 
	C107.356071,114.398010 101.531395,117.575066 96.765968,116.998383 
	C91.371765,116.345604 89.246109,113.926865 89.199760,107.411385 
	C91.959053,108.144791 94.480789,108.904282 97.047699,109.452087 
	C98.033493,109.662468 99.474052,109.773933 100.066154,109.231071 
	C100.669945,108.677498 100.971855,106.751404 100.539047,106.341461 
	C99.785835,105.628021 98.376389,105.409698 97.224335,105.354660 
	C94.505249,105.224754 91.775749,105.312981 88.906364,105.312981 
	C89.734848,99.892540 90.405746,95.503128 91.094025,91.000000 
	C93.909004,91.000000 96.223915,91.000000 99.017273,91.000000 
z"/>
<path fill="#6F32A4" opacity="1.000000" stroke="none" 
	d="
M140.573029,174.105270 
	C141.263504,177.469162 141.798035,180.980850 141.956635,184.509460 
	C142.142227,188.638931 142.000244,192.783142 142.000641,197.377808 
	C137.630463,199.225357 133.260040,200.616043 128.495117,202.031189 
	C127.733452,198.085205 127.259415,194.120865 127.033417,190.142410 
	C126.857330,187.042725 126.989853,183.925507 126.974556,180.336685 
	C131.392853,177.991730 135.821823,176.126144 140.573029,174.105270 
z"/>
<path fill="#6331AC" opacity="1.000000" stroke="none" 
	d="
M161.126862,46.437134 
	C161.301712,40.513699 161.705292,34.922390 161.976425,29.324663 
	C162.113159,26.501726 162.009827,23.667162 162.028076,20.360878 
	C167.312286,24.471188 172.951508,28.711119 177.724670,33.768440 
	C180.882889,37.114662 179.218231,41.844044 176.470322,44.500034 
	C174.055878,46.833729 170.074066,47.837444 166.602295,48.651855 
	C165.067047,49.011997 163.081818,47.453892 161.126862,46.437134 
z"/>
<path fill="#FFFFFF" opacity="1.000000" stroke="none" 
	d="
M81.415070,91.138153 
	C88.478081,97.447067 88.308708,99.125084 83.764938,108.645111 
	C81.249924,113.914505 78.060417,117.901291 70.927177,115.451698 
	C72.146484,113.452187 73.414848,111.372223 74.686661,109.286621 
	C68.121468,107.456413 65.453514,103.068192 67.080589,96.808884 
	C68.275131,92.213493 73.884254,89.604683 79.545570,90.983253 
	C80.018349,91.098381 80.540367,91.011314 81.415070,91.138153 
M78.479729,102.010574 
	C78.671898,100.854324 79.417580,99.206497 78.928238,98.655502 
	C78.168930,97.800507 76.582657,97.483276 75.315369,97.395828 
	C74.934677,97.369560 73.919205,99.401207 74.097397,99.577507 
	C75.243416,100.711288 76.640251,101.591553 78.479729,102.010574 
z"/>
<path fill="#000000" opacity="1.000000" stroke="none" 
	d="
M78.217224,102.282822 
	C76.640251,101.591553 75.243416,100.711288 74.097397,99.577507 
	C73.919205,99.401207 74.934677,97.369560 75.315369,97.395828 
	C76.582657,97.483276 78.168930,97.800507 78.928238,98.655502 
	C79.417580,99.206497 78.671898,100.854324 78.217224,102.282822 
z"/>
</svg>