<svg version="1.1" id="Layer_1" xmlns="http://www.w3.org/2000/svg" xmlns:xlink="http://www.w3.org/1999/xlink" x="0px" y="0px"
	 width="100%" viewBox="0 0 204 204" enable-background="new 0 0 204 204" xml:space="preserve">
<path fill="#000000" opacity="1.000000" stroke="none" 
	d="
M121.787277,1.352557 
	C148.595779,1.000000 175.191849,1.056962 201.786880,0.916678 
	C204.615616,0.901757 205.088272,1.563295 205.075150,4.270405 
	C204.949448,30.200678 205.000000,56.131802 205.000000,82.531342 
	C201.248352,83.883438 201.782257,80.585258 201.148590,78.784264 
	C198.926025,72.467308 196.369141,70.847382 189.158783,72.011887 
	C183.032928,75.581268 181.656815,78.948120 183.025177,86.456619 
	C185.411850,99.552979 185.030075,112.536278 181.573517,125.417389 
	C180.012375,131.235077 177.180954,136.515930 174.558868,142.304214 
	C169.562103,149.950989 164.728760,157.242691 157.830200,163.348083 
	C152.520752,167.576294 147.414474,171.470840 141.486450,174.831238 
	C136.835434,177.678833 131.940292,179.001831 126.886658,180.973785 
	C117.896507,184.382538 108.903770,184.698181 99.434189,184.444748 
	C89.296547,184.779205 80.331329,181.623672 71.013039,178.270844 
	C56.139080,171.468643 44.255062,161.656723 34.919731,148.199234 
	C17.749073,119.964828 16.512161,91.581352 32.364403,62.357048 
	C43.292458,43.839554 58.884388,31.698570 79.113182,24.732788 
	C86.562141,22.172544 93.939995,21.708153 101.731613,21.203917 
	C109.006851,21.536510 115.898064,21.717777 122.952812,23.780323 
	C130.745819,25.816669 137.736801,28.742441 144.602493,32.905518 
	C150.665314,36.441189 155.760376,40.658947 161.083359,45.152557 
	C165.781662,48.049603 170.203079,48.382298 174.360474,45.007271 
	C178.336929,41.779140 178.726135,36.539696 175.273193,32.630154 
	C171.412857,28.259377 167.207993,24.226116 161.961395,20.866970 
	C156.671967,17.032980 151.500244,13.692100 145.430130,11.159898 
	C138.565689,8.345230 131.992462,5.816948 124.663666,4.326178 
	C122.943672,3.864659 121.615791,3.462091 121.787277,1.352557 
z"/>
<path fill="#000000" opacity="1.000000" stroke="none" 
	d="
M204.681976,122.786011 
	C205.000000,149.262466 204.942352,175.525238 205.083359,201.786957 
	C205.098541,204.615585 204.436874,205.088608 201.729736,205.075241 
	C176.132767,204.948868 150.534912,205.000000 124.468658,205.000000 
	C122.876892,202.111404 125.381332,202.193680 127.254852,201.320374 
	C131.922424,199.914917 136.330444,198.965286 140.771820,196.928741 
	C147.043991,194.413544 152.735458,191.576630 158.244659,187.654449 
	C164.235641,183.942841 169.354736,179.716949 174.187454,174.595734 
	C180.251572,168.911575 185.348160,162.899048 189.326599,155.536346 
	C194.821259,146.747894 198.559479,137.633484 200.980865,127.932678 
	C201.488800,125.897743 201.176849,123.040810 204.681976,122.786011 
z"/>
<path fill="#000000" opacity="1.000000" stroke="none" 
	d="
M83.213440,204.666626 
	C56.737095,205.000000 30.473881,204.942169 4.211737,205.083557 
	C1.380113,205.098801 0.911961,204.432556 0.925031,201.728302 
	C1.050349,175.798462 1.000000,149.867767 1.000000,123.468658 
	C4.237278,121.932434 4.034075,124.685570 4.437819,126.334366 
	C7.070683,137.086395 11.316209,147.141251 17.322296,156.861038 
	C21.807920,164.882065 27.924868,171.051270 34.530167,177.272369 
	C44.792919,187.691971 57.049210,194.089523 70.709091,198.853302 
	C73.848396,199.928818 76.756561,200.427826 79.553535,201.310577 
	C81.175941,201.822601 83.263016,201.890701 83.213440,204.666626 
z"/>
<path fill="#000000" opacity="1.000000" stroke="none" 
	d="
M1.315495,83.213928 
	C1.000000,56.737095 1.057829,30.473881 0.916444,4.211737 
	C0.901200,1.380117 1.567441,0.911961 4.271691,0.925031 
	C30.201536,1.050348 56.132233,1.000000 82.531342,1.000000 
	C84.145241,3.847575 81.627281,3.777537 79.805695,4.667686 
	C61.772003,8.526049 46.765781,17.285322 33.156967,29.428314 
	C27.971197,35.006401 22.807463,40.144760 18.725090,46.660469 
	C12.080734,56.852985 7.285124,67.445930 4.591023,78.972939 
	C4.179139,80.735237 4.460193,83.179276 1.315495,83.213928 
z"/>
<path fill="#A13582" opacity="1.000000" stroke="none" 
	d="
M1.000000,83.468658 
	C2.333538,83.504921 2.775485,82.723564 2.939359,81.618690 
	C4.863014,68.649040 10.606904,57.237988 17.661148,46.058086 
	C20.394892,47.508038 20.448732,50.090961 20.453421,52.564339 
	C20.499989,77.138176 20.664818,101.711678 20.109253,126.284660 
	C19.925629,134.406448 19.802422,142.529739 19.497625,150.648376 
	C19.405506,153.102051 19.780899,155.693268 17.360332,157.896057 
	C9.837845,147.817413 5.122213,136.540268 2.891131,124.221756 
	C2.792576,123.677605 2.169393,123.228470 1.395290,122.867538 
	C1.000000,109.979103 1.000000,96.958214 1.000000,83.468658 
z"/>
<path fill="#5730B4" opacity="1.000000" stroke="none" 
	d="
M205.000000,122.531342 
	C202.700958,122.433075 203.252289,124.234047 202.977478,125.398026 
	C200.443497,136.130280 196.684921,146.368408 190.394974,155.876801 
	C186.585800,154.902954 187.499130,151.824814 187.478683,149.423279 
	C187.342758,133.460953 187.383942,117.497154 187.424469,101.534012 
	C187.445572,93.222153 187.158112,84.905281 187.712524,76.598907 
	C187.822662,74.948883 187.638397,73.257988 188.695038,71.297638 
	C196.097061,68.628723 200.094040,70.948799 202.208984,77.947556 
	C202.735321,79.689369 202.140152,82.058708 204.612442,83.128990 
	C205.000000,96.020897 205.000000,109.041786 205.000000,122.531342 
z"/>
<path fill="#823397" opacity="1.000000" stroke="none" 
	d="
M83.466858,205.000000 
	C83.557053,203.280457 82.328880,203.273865 81.194695,202.990143 
	C77.680252,202.111069 74.189400,201.137665 70.343430,200.017670 
	C67.277771,192.495560 68.094795,185.055359 69.697815,177.240265 
	C76.575233,178.235870 82.682701,181.059906 89.298866,182.317657 
	C92.289528,182.886185 95.190239,182.644928 98.551750,183.100983 
	C101.790115,190.109772 100.836266,197.159439 99.296112,204.608643 
	C93.977905,205.000000 88.955818,205.000000 83.466858,205.000000 
z"/>
<path fill="#78329E" opacity="1.000000" stroke="none" 
	d="
M99.468651,205.000000 
	C98.999977,198.026398 98.999947,191.052780 98.999489,183.622406 
	C108.196335,183.292603 117.346672,183.019379 126.568054,179.917557 
	C128.942627,181.864059 128.514282,184.448090 128.497986,186.856216 
	C128.465790,191.615921 128.855148,196.383789 128.207214,201.596161 
	C127.195274,203.908752 124.408630,202.041214 123.849457,204.640640 
	C115.979103,205.000000 107.958199,205.000000 99.468651,205.000000 
z"/>
<path fill="#78329E" opacity="1.000000" stroke="none" 
	d="
M121.531464,1.000000 
	C121.446625,3.108552 123.000679,2.896317 124.618507,3.099331 
	C125.440895,3.654749 125.961349,4.185405 125.990677,4.823454 
	C126.295258,11.451968 126.930054,18.109575 124.311981,24.846771 
	C116.940369,24.110743 109.910271,23.092571 102.463501,22.091965 
	C100.646217,21.566433 99.900612,20.396770 99.820221,19.045227 
	C99.477066,13.276599 98.623390,7.476441 100.706680,1.388683 
	C107.687645,1.000000 114.375290,1.000000 121.531464,1.000000 
z"/>
<path fill="#823397" opacity="1.000000" stroke="none" 
	d="
M100.532059,1.000000 
	C101.421135,7.768661 100.125648,14.597283 101.878387,21.717422 
	C97.820503,24.198763 93.129799,22.341452 88.688126,23.810980 
	C85.871292,24.742928 82.730904,25.100180 79.385544,25.880711 
	C76.207184,18.861248 77.159950,11.787004 78.678001,4.298445 
	C79.873581,2.098291 82.619987,3.952015 83.155930,1.354071 
	C88.688042,1.000000 94.376083,1.000000 100.532059,1.000000 
z"/>
<path fill="#9B3586" opacity="1.000000" stroke="none" 
	d="
M16.981796,158.455704 
	C19.328768,152.240555 18.326050,145.905716 18.413794,139.965622 
	C18.513109,133.242020 18.531860,126.379837 18.570871,119.632500 
	C18.632765,108.928009 18.944588,98.204399 18.989166,87.486717 
	C19.036882,76.015228 18.980906,64.543327 19.016762,53.071754 
	C19.023567,50.894077 18.960157,48.758808 18.021484,46.303078 
	C21.346254,39.448700 27.093424,34.913864 31.657036,29.031038 
	C33.723286,30.568581 33.491192,32.802063 33.504318,34.908978 
	C33.558735,43.642071 33.552620,52.375610 33.701797,61.551956 
	C29.094725,70.962944 25.067188,80.121170 23.764143,90.383598 
	C21.975647,104.469322 22.831585,118.152328 27.813694,131.561630 
	C29.883205,137.131683 32.847923,142.167282 35.906246,147.584290 
	C36.998409,156.134399 36.412525,164.396729 36.458561,172.647446 
	C36.468708,174.466690 36.267136,176.302383 34.374481,177.891663 
	C27.350887,172.516556 21.572083,166.196793 16.981796,158.455704 
z"/>
<path fill="#91348D" opacity="1.000000" stroke="none" 
	d="
M34.003662,61.685543 
	C31.148401,61.374454 32.051579,59.176556 32.037788,57.547565 
	C31.959570,48.310127 31.992960,39.071743 31.976677,29.356277 
	C40.609818,21.125479 49.938232,14.424729 60.632664,9.702597 
	C66.296410,7.201764 72.026016,5.021446 78.552429,3.937445 
	C78.968704,10.900720 78.981354,17.909302 78.991486,25.374626 
	C71.611053,28.851986 64.456703,32.204559 57.741474,36.641338 
	C47.928722,43.124668 40.689613,51.863243 34.003662,61.685543 
z"/>
<path fill="#91348D" opacity="1.000000" stroke="none" 
	d="
M34.095818,178.412750 
	C35.983376,173.846802 34.638206,169.314209 34.988281,164.915939 
	C35.418270,159.513672 34.202110,154.035904 35.884552,148.288818 
	C44.916237,160.139603 55.867474,169.904739 69.854111,176.584076 
	C70.022972,184.225845 70.011017,191.573456 69.998260,199.377747 
	C56.613571,195.272186 44.330765,188.845612 34.095818,178.412750 
z"/>
<path fill="#5C30B0" opacity="1.000000" stroke="none" 
	d="
M188.589111,70.932220 
	C188.972260,97.115959 188.975388,123.346039 189.021683,149.576035 
	C189.025162,151.543945 188.591248,153.570862 189.785645,155.768311 
	C186.840439,163.511993 181.358093,169.256149 175.340103,174.970184 
	C172.462524,173.338791 172.672943,170.572891 172.630661,167.976715 
	C172.499329,159.913635 172.928329,151.855637 172.925385,143.372589 
	C181.023438,127.981285 184.162247,111.964111 183.018967,95.025909 
	C182.797058,91.738335 181.997421,88.592995 181.241425,85.413788 
	C179.722672,79.026939 182.665558,73.050606 188.589111,70.932220 
z"/>
<path fill="#6331AC" opacity="1.000000" stroke="none" 
	d="
M172.600388,143.127289 
	C176.181656,146.845627 173.986404,151.383896 174.168076,155.577545 
	C174.437790,161.803848 173.192169,168.089203 174.978729,174.695374 
	C170.768600,180.367416 165.494476,184.424530 159.449188,188.020721 
	C156.459503,187.829132 156.653275,185.623489 156.618210,184.003433 
	C156.473145,177.300797 156.085968,170.587433 156.856171,163.420593 
	C162.693222,156.919098 168.231247,150.684052 172.600388,143.127289 
z"/>
<path fill="#6F32A4" opacity="1.000000" stroke="none" 
	d="
M124.184891,25.436167 
	C124.313492,18.106276 124.656509,11.083635 124.999115,3.613562 
	C132.103836,4.387812 138.748856,7.017168 145.668610,9.990195 
	C147.269775,11.821876 147.609573,13.774064 147.408203,15.743600 
	C146.801407,21.678415 148.530838,27.846823 145.309052,33.836803 
	C139.672333,31.728891 134.404327,29.284718 129.074753,26.983067 
	C127.610847,26.350861 125.962837,26.144947 124.184891,25.436167 
z"/>
<path fill="#FFFFFF" opacity="1.000000" stroke="none" 
	d="
M118.226395,110.375641 
	C120.354660,107.678284 122.282097,105.298866 124.325035,102.776848 
	C119.997360,102.319427 115.296654,105.256676 112.709946,99.406364 
	C111.250481,96.105522 112.490135,93.898521 114.583054,92.088699 
	C117.033295,89.969902 120.506538,90.274818 122.890152,91.663788 
	C126.066124,93.514473 127.143227,96.877792 124.191391,101.702202 
	C129.716934,97.499756 130.599503,88.940056 139.421890,91.477036 
	C136.078568,95.896645 132.992249,99.976524 129.759201,104.250366 
	C133.933517,104.362473 138.513763,102.330940 140.939407,107.214569 
	C142.332993,110.020302 141.902069,112.857246 139.447739,114.990120 
	C137.246521,116.903015 134.842209,117.782921 131.940231,116.032799 
	C127.995445,113.653763 126.620872,110.583778 129.094452,106.070610 
	C124.409340,109.730896 123.666145,118.238647 115.150810,115.643661 
	C114.846039,113.156540 117.982346,112.831024 118.226395,110.375641 
z"/>
<path fill="#6931A8" opacity="1.000000" stroke="none" 
	d="
M145.113770,34.425529 
	C146.205658,26.477106 145.973190,18.768618 145.998688,10.618761 
	C151.685776,12.440042 156.855103,15.610133 161.890701,19.577665 
	C164.897476,24.949387 163.257294,30.460770 163.492767,35.763454 
	C163.640488,39.090034 164.378677,42.697945 161.385376,45.873974 
	C157.832123,45.645699 156.745117,42.600624 154.500366,41.033131 
	C151.444763,38.899433 148.344879,36.829182 145.113770,34.425529 
z"/>
<path fill="#6931A8" opacity="1.000000" stroke="none" 
	d="
M156.587036,163.093399 
	C159.081116,165.772308 157.716858,169.032440 157.957901,172.080658 
	C158.362778,177.200607 157.461136,182.373398 158.784668,187.769760 
	C154.536484,192.819168 148.129593,194.449951 142.346603,197.780304 
	C140.205383,195.935165 140.468506,193.524841 140.510300,191.245087 
	C140.610336,185.789993 140.052490,180.320831 140.858612,174.414719 
	C146.023224,170.378937 151.151184,166.807892 156.587036,163.093399 
z"/>
<path fill="#FFFFFF" opacity="1.000000" stroke="none" 
	d="
M92.815735,114.324432 
	C87.622604,109.399490 86.920113,102.399918 89.676720,96.706352 
	C91.790489,92.340485 95.373901,90.429710 99.640594,90.128159 
	C104.701462,89.770493 107.811989,93.422470 110.329811,99.653954 
	C112.095528,104.024010 109.603180,112.763733 106.519844,114.749626 
	C102.067284,117.617401 96.839554,118.400414 92.815735,114.324432 
z"/>
<path fill="#FFFFFF" opacity="1.000000" stroke="none" 
	d="
M67.010399,110.610764 
	C67.077866,107.799110 66.371361,105.231865 68.979103,103.496841 
	C70.613632,102.409325 68.797714,101.779961 68.469460,100.889153 
	C67.385185,97.946594 67.544395,94.804688 69.910103,92.753487 
	C73.296822,89.816994 77.587738,89.524643 81.590736,91.318108 
	C84.177116,92.476883 85.310974,95.265251 85.893852,98.004059 
	C86.026779,98.628639 85.464668,99.575317 84.956131,100.129257 
	C83.486290,101.730293 83.188606,102.823761 84.988251,104.718292 
	C87.392738,107.249550 87.231514,110.448723 85.130325,113.338242 
	C82.926399,116.369041 76.804138,118.142677 73.142822,116.604424 
	C70.513969,115.499924 67.788193,114.270927 67.010399,110.610764 
z"/>
<path fill="#6F32A4" opacity="1.000000" stroke="none" 
	d="
M140.573029,174.105270 
	C143.227295,177.263672 141.690079,180.991287 141.933472,184.512100 
	C142.218155,188.630249 142.000244,192.783142 142.000641,197.377808 
	C137.720016,199.506760 133.462112,201.251083 128.495117,202.031189 
	C125.796341,198.264359 127.399300,194.110901 127.052116,190.139725 
	C126.782303,187.053482 126.989853,183.925507 126.974556,180.336685 
	C131.392853,177.991730 135.821823,176.126144 140.573029,174.105270 
z"/>
<path fill="#6331AC" opacity="1.000000" stroke="none" 
	d="
M161.126862,46.437134 
	C163.099930,40.625835 161.579498,34.915844 161.966293,29.323486 
	C162.161087,26.507292 162.009827,23.667162 162.028076,20.360882 
	C168.612656,22.976950 173.289246,28.333168 177.760239,33.724072 
	C180.730133,37.305019 178.849152,41.367611 176.587097,44.647282 
	C174.296921,47.967731 170.479294,49.237225 166.674225,48.635586 
	C164.991287,48.369488 162.585968,48.738743 161.126862,46.437134 
z"/>
<path fill="#000000" opacity="1.000000" stroke="none" 
	d="
M119.003899,95.042053 
	C120.546280,95.964325 121.888947,96.816757 120.098854,98.411819 
	C119.371094,99.060287 118.713676,99.153618 118.016731,98.509529 
	C116.447479,97.059303 118.254837,96.171333 119.003899,95.042053 
z"/>
<path fill="#000000" opacity="1.000000" stroke="none" 
	d="
M134.975647,109.026428 
	C136.243607,110.026024 136.520432,111.157372 135.274994,111.863602 
	C134.486191,112.310890 133.749054,111.420448 133.341415,110.722603 
	C132.539337,109.349449 133.422577,109.047829 134.975647,109.026428 
z"/>
<path fill="#000000" opacity="1.000000" stroke="none" 
	d="
M96.576202,107.090111 
	C96.185036,104.998199 95.866020,103.164192 96.075699,101.392761 
	C96.279686,99.669327 97.014198,97.872185 99.050369,97.545609 
	C100.987259,97.234955 102.426918,98.612320 102.630852,100.211998 
	C103.048058,103.484558 104.423355,107.288849 100.702759,109.602570 
	C98.647194,110.880836 97.342415,109.530350 96.576202,107.090111 
z"/>
<path fill="#000000" opacity="1.000000" stroke="none" 
	d="
M75.793076,110.293694 
	C74.846733,109.087440 73.130623,108.526321 74.602463,106.881866 
	C75.375084,106.018639 76.314545,105.761833 77.224861,106.080299 
	C78.314072,106.461372 79.267746,107.304039 78.961220,108.659782 
	C78.628754,110.130272 78.144913,111.640968 75.793076,110.293694 
z"/>
<path fill="#000000" opacity="1.000000" stroke="none" 
	d="
M75.022552,98.900482 
	C75.132942,96.215004 76.624794,96.938766 77.787361,97.355835 
	C78.198105,97.503181 78.747688,98.537582 78.621635,98.704437 
	C77.665482,99.970047 76.508217,100.798080 75.022552,98.900482 
z"/>
</svg>