<svg version="1.1" id="Layer_1" xmlns="http://www.w3.org/2000/svg" xmlns:xlink="http://www.w3.org/1999/xlink" x="0px" y="0px"
	 width="100%" viewBox="0 0 100 100" enable-background="new 0 0 100 100" xml:space="preserve">
<path fill="#FEFEFE" opacity="1.000000" stroke="none" 
	d="
M64.000000,101.000000 
	C53.979107,101.000000 43.958210,101.000000 33.468948,100.531342 
	C33.000580,86.153664 33.000580,72.244652 33.000580,57.998940 
	C29.779007,57.998940 26.911747,58.395679 24.237818,57.848194 
	C22.666533,57.526470 20.256285,55.766453 20.189445,54.545715 
	C19.802435,47.477394 20.000406,40.377041 20.000406,32.913315 
	C24.552025,32.913315 28.627737,32.913315 33.000439,32.913315 
	C33.000439,30.407545 32.934807,28.279596 33.012009,26.156841 
	C33.317013,17.770342 33.666817,9.385473 34.000000,1.000000 
	C47.687561,1.000000 61.375122,1.000000 75.531067,1.468479 
	C75.999458,7.872030 75.999458,13.807102 75.999458,20.119804 
	C71.750000,20.119804 68.000694,20.119804 64.253586,20.119804 
	C64.253586,24.586523 64.253586,28.657423 64.253586,33.112106 
	C68.241096,33.112106 71.989563,33.112106 75.799881,33.112106 
	C75.799881,41.267815 75.799881,49.029644 75.799881,57.093414 
	C71.803215,57.554340 67.983376,57.994873 64.000000,58.454269 
	C64.000000,72.738998 64.000000,86.869499 64.000000,101.000000 
z"/>
<path fill="#000000" opacity="1.000000" stroke="none" 
	d="
M64.468658,101.000000 
	C64.000000,86.869499 64.000000,72.738998 64.000000,58.454269 
	C67.983376,57.994873 71.803215,57.554340 75.799881,57.093414 
	C75.799881,49.029644 75.799881,41.267815 75.799881,33.112106 
	C71.989563,33.112106 68.241096,33.112106 64.253586,33.112106 
	C64.253586,28.657423 64.253586,24.586523 64.253586,20.119804 
	C68.000694,20.119804 71.750000,20.119804 75.999458,20.119804 
	C75.999458,13.807102 75.999458,7.872030 75.999725,1.468479 
	C84.310768,1.000000 92.621529,1.000000 100.966148,1.000000 
	C100.966148,34.220470 100.966148,67.440987 100.966148,101.000000 
	C88.981224,101.000000 76.959267,101.000000 64.468658,101.000000 
z"/>
<path fill="#000000" opacity="1.000000" stroke="none" 
	d="
M33.531342,1.000000 
	C33.666817,9.385473 33.317013,17.770342 33.012009,26.156841 
	C32.934807,28.279596 33.000439,30.407545 33.000439,32.913315 
	C28.627737,32.913315 24.552025,32.913315 20.000406,32.913315 
	C20.000406,40.377041 19.802435,47.477394 20.189445,54.545715 
	C20.256285,55.766453 22.666533,57.526470 24.237818,57.848194 
	C26.911747,58.395679 29.779007,57.998940 33.000580,57.998940 
	C33.000580,72.244652 33.000580,86.153664 33.000290,100.531342 
	C22.361692,101.000000 11.723385,101.000000 1.042539,101.000000 
	C1.042539,67.783691 1.042539,34.567318 1.042539,1.000000 
	C11.685000,1.000000 22.373842,1.000000 33.531342,1.000000 
z"/>
</svg>